<?xml version="1.0" encoding="utf-8"?>
<!-- Generator: Adobe Illustrator 25.4.1, SVG Export Plug-In . SVG Version: 6.00 Build 0)  -->
<svg version="1.1" id="Camada_1" xmlns="http://www.w3.org/2000/svg" xmlns:xlink="http://www.w3.org/1999/xlink" x="0px" y="0px"
	 viewBox="0 0 529.3 580" style="enable-background:new 0 0 529.3 580;" xml:space="preserve">
<style type="text/css">
	.st0{fill:url(#SVGID_1_);}
	.st1{fill:url(#SVGID_00000135674468310815673750000010995510152956343196_);}
	.st2{fill:url(#SVGID_00000090267378861866389630000001228423127903032454_);}
	.st3{fill:url(#SVGID_00000067929259167863817660000000758744543126074500_);}
	.st4{fill:url(#SVGID_00000035527435656705792620000002822028406333542328_);}
</style>
<g>
	
		<linearGradient id="SVGID_1_" gradientUnits="userSpaceOnUse" x1="152.1755" y1="-66.4541" x2="152.1755" y2="1009.3345" gradientTransform="matrix(1 0 0 -1 0 582)">
		<stop  offset="0" style="stop-color:#B88746"/>
		<stop  offset="1" style="stop-color:#FDF5A6"/>
	</linearGradient>
	<polygon class="st0" points="49.5,530.2 85.4,494.3 85.4,206.1 229.5,350.2 254.8,324.9 49.5,119.6 	"/>
	
		<linearGradient id="SVGID_00000183947915357760460060000005705688793558173831_" gradientUnits="userSpaceOnUse" x1="159.4264" y1="-66.4541" x2="159.4264" y2="1009.3345" gradientTransform="matrix(1 0 0 -1 0 582)">
		<stop  offset="0" style="stop-color:#B88746"/>
		<stop  offset="1" style="stop-color:#FDF5A6"/>
	</linearGradient>
	<polygon style="fill:url(#SVGID_00000183947915357760460060000005705688793558173831_);" points="99.1,480.6 134.9,444.8 
		134.9,325.7 194.4,385.3 219.8,359.9 99.1,239.2 	"/>
	
		<linearGradient id="SVGID_00000020387722066421312480000016897416263931700140_" gradientUnits="userSpaceOnUse" x1="264.648" y1="-66.4541" x2="264.648" y2="1009.3345" gradientTransform="matrix(1 0 0 -1 0 582)">
		<stop  offset="0" style="stop-color:#B88746"/>
		<stop  offset="1" style="stop-color:#FDF5A6"/>
	</linearGradient>
	<polygon style="fill:url(#SVGID_00000020387722066421312480000016897416263931700140_);" points="493.5,36.1 493.5,493.5 
		289.8,289.8 289.8,289.8 0,0 0,579.7 35.8,543.9 35.8,86.5 239.4,290.2 239.4,290.2 529.3,580 529.3,0.3 	"/>
	
		<linearGradient id="SVGID_00000061438410243893007340000010124882943192673979_" gradientUnits="userSpaceOnUse" x1="377.1206" y1="-66.4541" x2="377.1206" y2="1009.3345" gradientTransform="matrix(1 0 0 -1 0 582)">
		<stop  offset="0" style="stop-color:#B88746"/>
		<stop  offset="1" style="stop-color:#FDF5A6"/>
	</linearGradient>
	<polygon style="fill:url(#SVGID_00000061438410243893007340000010124882943192673979_);" points="479.8,49.8 443.9,85.7 
		443.9,373.9 299.8,229.8 274.5,255.1 479.8,460.4 	"/>
	
		<linearGradient id="SVGID_00000023965450241937946750000000065016025463673016_" gradientUnits="userSpaceOnUse" x1="369.8697" y1="-66.4541" x2="369.8697" y2="1009.3345" gradientTransform="matrix(1 0 0 -1 0 582)">
		<stop  offset="0" style="stop-color:#B88746"/>
		<stop  offset="1" style="stop-color:#FDF5A6"/>
	</linearGradient>
	<polygon style="fill:url(#SVGID_00000023965450241937946750000000065016025463673016_);" points="430.2,99.4 394.4,135.2 
		394.4,254.3 334.8,194.7 309.5,220.1 430.2,340.8 	"/>
</g>
</svg>
